M48
; DRILL file {KiCad 7.0.1} date Fri Apr  7 19:56:47 2023
; FORMAT={-:-/ absolute / metric / decimal}
; #@! TF.CreationDate,2023-04-07T19:56:47+02:00
; #@! TF.GenerationSoftware,Kicad,Pcbnew,7.0.1
; #@! TF.FileFunction,MixedPlating,1,6
FMAT,2
METRIC
; #@! TA.AperFunction,Plated,PTH,ViaDrill
T1C0.300
; #@! TA.AperFunction,Plated,PTH,ComponentDrill
T2C1.000
; #@! TA.AperFunction,NonPlated,NPTH,ComponentDrill
T3C0.900
%
G90
G05
T1
X38.1Y-18.796
X38.862Y-81.28
X42.672Y-41.402
X43.434Y-51.816
X48.67Y-31.61
X57.15Y-91.948
X63.5Y-79.248
X64.47Y-49.38
X64.77Y-81.28
X65.786Y-75.946
X68.326Y-78.74
X69.592Y-33.358
X72.53Y-43.03
X74.168Y-28.194
X76.962Y-28.956
X77.47Y-23.622
X79.756Y-34.036
X91.948Y-44.704
T2
X23.723Y-52.49
X23.723Y-55.03
X23.723Y-57.57
X23.723Y-60.11
X23.723Y-62.65
X23.723Y-65.19
X23.723Y-67.73
X23.723Y-70.27
X23.723Y-72.81
X23.723Y-75.35
X23.723Y-77.89
X23.723Y-80.43
X23.723Y-82.97
X23.723Y-85.51
X23.723Y-88.05
X23.723Y-90.59
X23.723Y-93.13
X23.723Y-95.67
X23.723Y-98.21
X23.723Y-100.75
X23.723Y-103.29
X23.723Y-105.83
X23.723Y-108.37
X23.723Y-110.91
X23.723Y-113.45
X26.262Y-52.49
X26.262Y-55.03
X26.262Y-57.57
X26.262Y-60.11
X26.262Y-62.65
X26.262Y-65.19
X26.262Y-67.73
X26.262Y-70.27
X26.262Y-72.81
X26.262Y-75.35
X26.262Y-77.89
X26.262Y-80.43
X26.262Y-82.97
X26.262Y-85.51
X26.262Y-88.05
X26.262Y-90.59
X26.262Y-93.13
X26.262Y-95.67
X26.262Y-98.21
X26.262Y-100.75
X26.262Y-103.29
X26.262Y-105.83
X26.262Y-108.37
X26.262Y-110.91
X26.262Y-113.45
X28.95Y-18.475
X28.95Y-21.015
X28.95Y-23.555
X28.95Y-26.095
X53.5Y-125.46
X53.5Y-128.0
X56.04Y-125.46
X56.04Y-128.0
X58.58Y-125.46
X58.58Y-128.0
X61.12Y-125.46
X61.12Y-128.0
X63.66Y-125.46
X63.66Y-128.0
X66.2Y-125.46
X66.2Y-128.0
X68.74Y-125.46
X68.74Y-128.0
X71.28Y-125.46
X71.28Y-128.0
X85.825Y-24.775
X85.825Y-27.315
X85.825Y-29.855
X85.825Y-32.395
X85.825Y-34.935
X85.825Y-37.475
X93.555Y-52.5
X93.555Y-55.04
X93.555Y-57.58
X93.555Y-60.12
X93.555Y-62.66
X93.555Y-65.2
X93.555Y-67.74
X93.555Y-70.28
X93.555Y-72.82
X93.555Y-75.36
X93.555Y-77.9
X93.555Y-80.44
X93.555Y-82.98
X93.555Y-85.52
X93.555Y-88.06
X93.555Y-90.6
X93.555Y-93.14
X93.555Y-95.68
X93.555Y-98.22
X93.555Y-100.76
X93.555Y-103.3
X93.555Y-105.84
X93.555Y-108.38
X93.555Y-110.92
X93.555Y-113.46
X96.095Y-52.5
X96.095Y-55.04
X96.095Y-57.58
X96.095Y-60.12
X96.095Y-62.66
X96.095Y-65.2
X96.095Y-67.74
X96.095Y-70.28
X96.095Y-72.82
X96.095Y-75.36
X96.095Y-77.9
X96.095Y-80.44
X96.095Y-82.98
X96.095Y-85.52
X96.095Y-88.06
X96.095Y-90.6
X96.095Y-93.14
X96.095Y-95.68
X96.095Y-98.22
X96.095Y-100.76
X96.095Y-103.3
X96.095Y-105.84
X96.095Y-108.38
X96.095Y-110.92
X96.095Y-113.46
X97.0Y-23.525
X97.0Y-26.065
X97.0Y-30.6
X97.0Y-33.14
X97.0Y-37.46
X97.0Y-40.0
T3
X52.7Y-20.025
X57.1Y-20.025
T0
M30
